Full Credits To Feel Free :)

 ######## ######## ######## ##          ######## ########  ######## ######## 
 ##       ##       ##       ##          ##       ##     ## ##       ##       
 ##       ##       ##       ##          ##       ##     ## ##       ##       
 ######   ######   ######   ##          ######   ########  ######   ######   
 ##       ##       ##       ##          ##       ##   ##   ##       ##       
 ##       ##       ##       ##          ##       ##    ##  ##       ##       
 ##       ######## ######## ########    ##       ##     ## ######## ########

Genre:Comedy | Drama | Romance 
 Language:English
 IMDb: 
http://www.imdb.com/title/tt1583420/
 Source:Russian/FU Thanks!

 Format : MPEG-4
 Format profile : Base Media
 Codec ID : isom
 File size : 1.14 GiB
 Duration : 1h 34mn
 Overall bit rate : 1 736 Kbps

 Video
 ID : 1
 Format : AVC
 Format/Info : Advanced Video Codec
 Format profile : High@L4.1
 Format settings, CABAC : Yes
 Format settings, ReFrames : 3 frames
 Format settings, GOP : M=1, N=11
 Codec ID : avc1
 Codec ID/Info : Advanced Video Coding
 Duration : 1h 34mn
 Bit rate mode : Variable
 Bit rate : 1 500 Kbps
 Maximum bit rate : 6 754 Kbps
 Width : 640 pixels
 Height : 296 pixels
 Display aspect ratio : 2.2:1
 Frame rate mode : Constant
 Frame rate : 25.000 fps
 Color space : YUV
 Chroma subsampling : 4:2:0
 Bit depth : 8 bits
 Scan type : Progressive
 Bits/(Pixel*Frame) : 0.317
 Stream size : 1 015 MiB (87%)
 Writing library : x264

 Audio
 ID : 2
 Format : AAC
 Format/Info : Advanced Audio Codec
 Format version : Version 4
 Format profile : LC
 Format settings, SBR : No
 Codec ID : 40
 Duration : 1h 33mn
 Bit rate mode : Variable
 Bit rate : 224 Kbps
 Maximum bit rate : 291 Kbps
 Channel(s) : 2 channels
 Channel positions : Front: L R
 Sampling rate : 44.1 KHz
 Stream size : 151 MiB (13%)


 Plot:
 After losing his job, a middle-aged man reinvents himself by going back to college.



Greets:

 INK,CRYS,IMAGINE,LKRG,FXG,3Li,FLAWL3SS,TA,iLLUSiON,ViSiON,DTRG 
 SAFCuk009,LU,TheFalcon007,MYSTiC,PrisM,Noir,WBZ,LAP,Rx,Kingdom,SAFCuk009+Fabreezy,
 HDLiTE,TWiZTED,ExtraTorrentRG.ELEKTRI4KA,MAGNAT,CM8
 And to all the other p2p grps past and present






 ==================================                             http://thepiratebay.org/user/hiest
 ==================================






Screen Shots:
 
http://www.pix2links.com/images/78446613778818063032.png
 
http://www.pix2links.com/images/90345259447072291486.png
 
http://www.pix2links.com/images/09689341039986398442.png
 
http://www.pix2links.com/images/41352879473402146174.png


Full Credits To Feel Free :)

 ######## ######## ######## ##          ######## ########  ######## ######## 
 ##       ##       ##       ##          ##       ##     ## ##       ##       
 ##       ##       ##       ##          ##       ##     ## ##       ##       
 ######   ######   ######   ##          ######   ########  ######   ######   
 ##       ##       ##       ##          ##       ##   ##   ##       ##       
 ##       ##       ##       ##          ##       ##    ##  ##       ##       
 ##       ######## ######## ########    ##       ##     ## ######## ########